<svg width="36" height="40" xmlns="http://www.w3.org/2000/svg"><defs><linearGradient x1=".41" y1="-.086" x2=".693" y2=".903" id="a"><stop offset="0" stop-color="#33338E"/><stop offset=".545" stop-color="#6E5ACC"/><stop offset="1" stop-color="#22B5CC"/></linearGradient><linearGradient x1=".632" y1=".061" x2=".44" y2="1.056" id="b"><stop offset="0" stop-color="#33338E"/><stop offset=".545" stop-color="#6E5ACC"/><stop offset="1" stop-color="#22B5CC"/></linearGradient></defs><path d="M32.143 6.687L5.825.142C2.325-.722-.811 2.505.189 6.005l7.5 26.091c1 3.5 5.409 4.591 7.909 1.955l18.818-19.546c2.454-2.59 1.227-6.954-2.273-7.818z" transform="translate(.262 4.227)" fill="url(#a)" style="mix-blend-mode:multiply"/><path d="M33.36 18.778L12.768 1.14c-2.773-2.363-7-.863-7.682 2.728l-5 26.682c-.682 3.545 2.773 6.5 6.182 5.318l25.59-9.046c3.455-1.272 4.273-5.727 1.5-8.045z" fill="url(#b)" style="mix-blend-mode:multiply"/><path d="M17.51 15.431v-1.499c0-.699.466-.899.833-.899h2.098V9.87h-2.864c-3.198 0-3.898 2.365-3.898 3.897v1.665h-1.865v3.698h1.865v9.293h3.731V19.13h2.765l.133-1.466.233-2.265H17.51v.033z" fill="#FFF"/></svg>