<svg xmlns="http://www.w3.org/2000/svg" viewBox="0 0 469.77 154.48"><defs><style>.cls-1{fill:#6236ff;}.cls-2{fill:#0b7fff;}.cls-3{fill:#01f6fd;}.cls-4{fill:#fff;}.cls-5{fill:#f6cd40;}.cls-6{fill:#333;}</style></defs><title>Ресурс 3</title><g id="Слой_2" data-name="Слой 2"><g id="Слой_1-2" data-name="Слой 1"><path class="cls-1" d="M142.67,36.18A77.24,77.24,0,1,1,.26,83.56C.09,81.46,129,14.45,142.67,36.18Z"/><path class="cls-2" d="M67.55,124.18a76.06,76.06,0,0,0,75.06-88.09A77.38,77.38,0,0,0,97.54,2.7,58.83,58.83,0,1,1,.42,69.11,78.11,78.11,0,0,0,0,77.24q0,3.19.26,6.32A76,76,0,0,0,67.55,124.18Z"/><path class="cls-3" d="M49.44,95.4A58.83,58.83,0,0,0,97.54,2.7,77.29,77.29,0,0,0,.42,69.11,58.77,58.77,0,0,0,49.44,95.4Z"/><path class="cls-4" d="M120.83,61.45H97.72A4.7,4.7,0,0,1,93,56.76V33.65A4.7,4.7,0,0,0,88.33,29H66.08a4.7,4.7,0,0,0-4.69,4.69v23.1a4.7,4.7,0,0,1-4.69,4.69H33.59a4.7,4.7,0,0,0-4.69,4.69V88.39a4.7,4.7,0,0,0,4.69,4.69h23.1a4.7,4.7,0,0,1,4.69,4.69v23.1a4.7,4.7,0,0,0,4.69,4.69H88.33A4.7,4.7,0,0,0,93,120.89V97.78a4.7,4.7,0,0,1,4.69-4.69h23.1a4.7,4.7,0,0,0,4.69-4.69V66.14A4.7,4.7,0,0,0,120.83,61.45Z"/><path class="cls-5" d="M121,76.71,102.53,66.07a.56.56,0,0,0-.88.5V88a.56.56,0,0,0,.88.5L121,77.83A.7.7,0,0,0,121,76.71Z"/><path class="cls-5" d="M33.18,77.83,51.7,88.47a.56.56,0,0,0,.88-.5V66.57a.56.56,0,0,0-.88-.5L33.18,76.71A.7.7,0,0,0,33.18,77.83Z"/><path class="cls-5" d="M76.8,33.24,66.17,51.76a.56.56,0,0,0,.5.88h21.4a.56.56,0,0,0,.5-.88L77.93,33.24A.7.7,0,0,0,76.8,33.24Z"/><path class="cls-5" d="M77.93,121.3l10.64-18.52a.56.56,0,0,0-.5-.88H66.67a.56.56,0,0,0-.5.88L76.8,121.3A.7.7,0,0,0,77.93,121.3Z"/><circle class="cls-1" cx="77.24" cy="77.24" r="9.94"/><path class="cls-6" d="M207.91,20.31c11.45,0,17.89,4.72,17.89,13.1,0,4.42-2.47,7.26-6.44,8.83,6.29,1.65,9.36,5.24,9.36,11.3,0,7.94-7.26,12.43-20.29,12.43H188.15V20.31Zm.9,17.89c2.4,0,3.74-1.27,3.74-3.52s-1.65-3.44-4.64-3.44h-5.76v7Zm-.22,16.69c3.67,0,5.69-1.42,5.69-4,0-2.4-1.95-3.74-5.46-3.74h-6.66v7.79Z"/><path class="cls-6" d="M247.89,66H233.06l16.39-45.66h19.09L284.94,66H270.2l-2.25-6.81H250.06Zm12.5-29.64c-.67-1.87-1-3.44-1.42-4.79-.3,1.35-.75,2.92-1.35,4.79L254,47.26h10Z"/><path class="cls-6" d="M311,20.31c13.18,0,20.59,6.21,20.59,17.29,0,6.81-2.7,11.6-7.49,14.37l9.06,12.43V66h-14.9l-8.38-11.45h-4.49V66h-14V20.31Zm.9,23.06c3.82,0,5.91-2.1,5.91-5.76S315.41,32,311.14,32h-5.76V43.36Z"/><path class="cls-6" d="M363.92,33V66H350V33H336.45V20.31h41V33Z"/><path class="cls-6" d="M384.58,66V20.31h34.66V32H398.43v5.84H416.1V48.75H398.43v5.46h21.41V66Z"/><path class="cls-6" d="M447.62,20.31c13.18,0,20.59,6.21,20.59,17.29,0,6.81-2.7,11.6-7.49,14.37l9.06,12.43V66h-14.9l-8.38-11.45H442V66H428V20.31Zm.9,23.06c3.82,0,5.91-2.1,5.91-5.76S452,32,447.77,32H442V43.36Z"/><path class="cls-6" d="M188.15,133.35V87.68h14v32.94h19.61v12.73Z"/><path class="cls-6" d="M242.12,133.35H227.3l16.4-45.66h19.09l16.39,45.66H264.43l-2.25-6.81H244.29Zm12.5-29.64c-.67-1.87-1-3.44-1.42-4.79-.3,1.35-.75,2.92-1.35,4.79l-3.67,10.93h10Z"/><path class="cls-6" d="M316.76,133.35l-17.14-23.13v23.13h-14V87.68h12.65l17.14,23.13V87.68h14v45.66Z"/><path class="cls-6" d="M357.56,87.68c16.32,0,25.53,8.23,25.53,22.83s-9.21,22.83-25.53,22.83H339.74V87.68Zm0,33.76c7.26,0,11.38-3.89,11.38-10.93s-4.12-11-11.38-11h-3.82v21.93Z"/></g></g></svg>