<svg width="14" height="17" xmlns="http://www.w3.org/2000/svg"><path d="M6.668 2.817A12.258 12.258 0 0 1 2.01 5.792c.066 1.333.608 6.75 4.658 8.633 4.042-2.017 4.592-7.3 4.667-8.625a11.2 11.2 0 0 1-4.667-2.983zM8.91 7.633l-2.767 2.909-1.667-1.725.592-.584 1.1 1.117 2.167-2.283.575.566z" fill="#0A82FE"/><path d="M13.335 4.333S10 3.817 6.668 0C3.335 3.808.001 4.333.001 4.333s-.266 9.625 6.667 12.275c6.942-2.658 6.667-12.275 6.667-12.275zM6.843 15.267l-.167.075-.175-.075C1.218 12.975 1.16 5.8 1.16 5.5v-.317l.3-.083a11.45 11.45 0 0 0 4.89-3.183l.317-.384.317.392a10.4 10.4 0 0 0 4.875 3.167l.308.083V5.5c.008.292-.05 7.317-5.325 9.767z" fill="#01F1FD"/></svg>