<svg width="33" height="37" xmlns="http://www.w3.org/2000/svg"><defs><linearGradient x1="0" y1="0" x2="1.02" y2="1.01" id="a"><stop offset="0" stop-color="#3023AE"/><stop offset="1" stop-color="#C86DD7"/></linearGradient></defs><path d="M8.975 4.078L.372 28.543C-1.055 32.642 1.8 37 5.917 37h17.166c4.118 0 6.972-4.358 5.545-8.457L20.025 4.078c-1.835-5.437-9.133-5.437-11.05 0z" transform="translate(4)" fill="url(#a)" style="mix-blend-mode:multiply"/><path d="M21.152.632L4.866 7.439c-5.069 2.113-6.481 8.709-2.783 12.81l8.31 9.174c3.697 4.1 10.303 3.17 12.755-1.818l7.977-15.981c3.283-6.595-3.24-13.825-9.971-10.992z" transform="translate(0 5)" fill="url(#a)" style="mix-blend-mode:multiply"/><path d="M25.251 24.095c-.54-.624-1.175-1.175-1.772-1.744-.54-.514-.578-.807-.13-1.413.466-.643.988-1.285 1.455-1.928.447-.605.895-1.211 1.138-1.927.149-.459.018-.66-.467-.753-.074-.018-.168-.018-.26-.018H22.36c-.355 0-.541.147-.672.459a14.97 14.97 0 0 1-.54 1.23c-.449.9-.952 1.78-1.661 2.515-.15.165-.336.367-.597.293-.336-.11-.43-.642-.41-.826v-3.23c-.056-.46-.168-.661-.635-.753H14.88c-.392 0-.597.147-.802.385-.13.147-.15.24.093.276.485.092.765.404.84.88a9.75 9.75 0 0 1 .037 2.332c-.019.22-.056.459-.15.661-.148.33-.372.404-.67.202-.28-.184-.467-.44-.654-.716-.709-.991-1.268-2.056-1.735-3.176-.13-.33-.373-.514-.709-.532a60.184 60.184 0 0 0-2.574 0c-.522.018-.672.257-.466.716.932 2.037 1.977 4.02 3.32 5.837.69.936 1.493 1.744 2.519 2.331 1.175.661 2.425.863 3.75.79.615-.037.802-.184.839-.79.019-.422.075-.826.28-1.211.205-.367.522-.44.877-.202.186.11.335.257.466.422.354.367.69.771 1.045 1.12.447.459.988.716 1.679.66h2.63c.429-.018.634-.532.392-1.009-.187-.312-.41-.587-.635-.881z" fill="#FFF"/></svg>